%TF.GenerationSoftware,KiCad,Pcbnew,(6.0.7-1)-1*%
%TF.CreationDate,2022-09-12T14:41:07+08:00*%
%TF.ProjectId,0101-HOTSWAP-KEY,30313031-2d48-44f5-9453-5741502d4b45,V1.0*%
%TF.SameCoordinates,Original*%
%TF.FileFunction,Legend,Bot*%
%TF.FilePolarity,Positive*%
%FSLAX46Y46*%
G04 Gerber Fmt 4.6, Leading zero omitted, Abs format (unit mm)*
G04 Created by KiCad (PCBNEW (6.0.7-1)-1) date 2022-09-12 14:41:07*
%MOMM*%
%LPD*%
G01*
G04 APERTURE LIST*
%ADD10C,0.120000*%
G04 APERTURE END LIST*
D10*
X15995238Y7238096D02*
X15995238Y6666667D01*
X16033333Y6552381D01*
X16109523Y6476191D01*
X16223809Y6438096D01*
X16300000Y6438096D01*
X15233333Y6438096D02*
X15614285Y6438096D01*
X15614285Y7238096D01*
X14509523Y6514286D02*
X14547619Y6476191D01*
X14661904Y6438096D01*
X14738095Y6438096D01*
X14852380Y6476191D01*
X14928571Y6552381D01*
X14966666Y6628572D01*
X15004761Y6780953D01*
X15004761Y6895239D01*
X14966666Y7047620D01*
X14928571Y7123810D01*
X14852380Y7200000D01*
X14738095Y7238096D01*
X14661904Y7238096D01*
X14547619Y7200000D01*
X14509523Y7161905D01*
X13938095Y7238096D02*
X13938095Y6666667D01*
X13976190Y6552381D01*
X14052380Y6476191D01*
X14166666Y6438096D01*
X14242857Y6438096D01*
X13176190Y6438096D02*
X13557142Y6438096D01*
X13557142Y7238096D01*
X12452380Y6514286D02*
X12490476Y6476191D01*
X12604761Y6438096D01*
X12680952Y6438096D01*
X12795238Y6476191D01*
X12871428Y6552381D01*
X12909523Y6628572D01*
X12947619Y6780953D01*
X12947619Y6895239D01*
X12909523Y7047620D01*
X12871428Y7123810D01*
X12795238Y7200000D01*
X12680952Y7238096D01*
X12604761Y7238096D01*
X12490476Y7200000D01*
X12452380Y7161905D01*
X11880952Y7238096D02*
X11880952Y6666667D01*
X11919047Y6552381D01*
X11995238Y6476191D01*
X12109523Y6438096D01*
X12185714Y6438096D01*
X11119047Y6438096D02*
X11500000Y6438096D01*
X11500000Y7238096D01*
X10395238Y6514286D02*
X10433333Y6476191D01*
X10547619Y6438096D01*
X10623809Y6438096D01*
X10738095Y6476191D01*
X10814285Y6552381D01*
X10852380Y6628572D01*
X10890476Y6780953D01*
X10890476Y6895239D01*
X10852380Y7047620D01*
X10814285Y7123810D01*
X10738095Y7200000D01*
X10623809Y7238096D01*
X10547619Y7238096D01*
X10433333Y7200000D01*
X10395238Y7161905D01*
X9823809Y7238096D02*
X9823809Y6666667D01*
X9861904Y6552381D01*
X9938095Y6476191D01*
X10052380Y6438096D01*
X10128571Y6438096D01*
X9061904Y6438096D02*
X9442857Y6438096D01*
X9442857Y7238096D01*
X8338095Y6514286D02*
X8376190Y6476191D01*
X8490476Y6438096D01*
X8566666Y6438096D01*
X8680952Y6476191D01*
X8757142Y6552381D01*
X8795238Y6628572D01*
X8833333Y6780953D01*
X8833333Y6895239D01*
X8795238Y7047620D01*
X8757142Y7123810D01*
X8680952Y7200000D01*
X8566666Y7238096D01*
X8490476Y7238096D01*
X8376190Y7200000D01*
X8338095Y7161905D01*
%TO.C,SW1*%
X8200000Y16700000D02*
X13300000Y16700000D01*
X12100000Y12500000D02*
X17200000Y12500000D01*
X12100000Y12500000D02*
G75*
G03*
X10100000Y10500000I-1J-1999999D01*
G01*
X8200000Y16700000D02*
G75*
G03*
X6200000Y14700000I-1J-1999999D01*
G01*
%TO.C,D1*%
X20300000Y7550000D02*
X20300000Y3650000D01*
X18300000Y7550000D02*
X18300000Y3650000D01*
X18300000Y7550000D02*
X20300000Y7550000D01*
%TD*%
M02*
