%TF.GenerationSoftware,KiCad,Pcbnew,(6.0.7-1)-1*%
%TF.CreationDate,2022-09-12T14:41:06+08:00*%
%TF.ProjectId,0101-HOTSWAP-KEY,30313031-2d48-44f5-9453-5741502d4b45,V1.0*%
%TF.SameCoordinates,Original*%
%TF.FileFunction,Legend,Top*%
%TF.FilePolarity,Positive*%
%FSLAX46Y46*%
G04 Gerber Fmt 4.6, Leading zero omitted, Abs format (unit mm)*
G04 Created by KiCad (PCBNEW (6.0.7-1)-1) date 2022-09-12 14:41:06*
%MOMM*%
%LPD*%
G01*
G04 APERTURE LIST*
%ADD10C,0.150000*%
%ADD11C,0.120000*%
G04 APERTURE END LIST*
D10*
X3747619Y16464405D02*
X4747619Y16464405D01*
X4271428Y16464405D02*
X4271428Y15892977D01*
X3747619Y15892977D02*
X4747619Y15892977D01*
X4747619Y15226310D02*
X4747619Y15035834D01*
X4700000Y14940596D01*
X4604761Y14845358D01*
X4414285Y14797739D01*
X4080952Y14797739D01*
X3890476Y14845358D01*
X3795238Y14940596D01*
X3747619Y15035834D01*
X3747619Y15226310D01*
X3795238Y15321548D01*
X3890476Y15416786D01*
X4080952Y15464405D01*
X4414285Y15464405D01*
X4604761Y15416786D01*
X4700000Y15321548D01*
X4747619Y15226310D01*
X4747619Y14512024D02*
X4747619Y13940596D01*
X3747619Y14226310D02*
X4747619Y14226310D01*
X3795238Y13654881D02*
X3747619Y13512024D01*
X3747619Y13273929D01*
X3795238Y13178691D01*
X3842857Y13131072D01*
X3938095Y13083453D01*
X4033333Y13083453D01*
X4128571Y13131072D01*
X4176190Y13178691D01*
X4223809Y13273929D01*
X4271428Y13464405D01*
X4319047Y13559643D01*
X4366666Y13607262D01*
X4461904Y13654881D01*
X4557142Y13654881D01*
X4652380Y13607262D01*
X4700000Y13559643D01*
X4747619Y13464405D01*
X4747619Y13226310D01*
X4700000Y13083453D01*
X4747619Y12750120D02*
X3747619Y12512024D01*
X4461904Y12321548D01*
X3747619Y12131072D01*
X4747619Y11892977D01*
X4033333Y11559643D02*
X4033333Y11083453D01*
X3747619Y11654881D02*
X4747619Y11321548D01*
X3747619Y10988215D01*
X3747619Y10654881D02*
X4747619Y10654881D01*
X4747619Y10273929D01*
X4700000Y10178691D01*
X4652380Y10131072D01*
X4557142Y10083453D01*
X4414285Y10083453D01*
X4319047Y10131072D01*
X4271428Y10178691D01*
X4223809Y10273929D01*
X4223809Y10654881D01*
X3747619Y8892977D02*
X4747619Y8892977D01*
X3747619Y8321548D02*
X4319047Y8750120D01*
X4747619Y8321548D02*
X4176190Y8892977D01*
X4271428Y7892977D02*
X4271428Y7559643D01*
X3747619Y7416786D02*
X3747619Y7892977D01*
X4747619Y7892977D01*
X4747619Y7416786D01*
X4223809Y6797739D02*
X3747619Y6797739D01*
X4747619Y7131072D02*
X4223809Y6797739D01*
X4747619Y6464405D01*
D11*
%TO.C,SW1*%
X5200000Y16900000D02*
X5200000Y2700000D01*
X5200000Y2700000D02*
X19400000Y2700000D01*
X19400000Y16900000D02*
X5200000Y16900000D01*
X19400000Y2700000D02*
X19400000Y16900000D01*
%TO.C,kibuzzard-631DE0FD*%
G36*
X16110000Y3144266D02*
G01*
X15401128Y3616847D01*
X15401128Y4721598D01*
X15682248Y4721598D01*
X15688320Y4609600D01*
X15702489Y4505698D01*
X16513463Y4505698D01*
X16524089Y4564059D01*
X16531680Y4623094D01*
X16536234Y4681454D01*
X16537752Y4737791D01*
X16534547Y4804416D01*
X16524933Y4866656D01*
X16507728Y4922655D01*
X16481753Y4970558D01*
X16400790Y5040051D01*
X16343948Y5059279D01*
X16274624Y5065689D01*
X16217950Y5058099D01*
X16163975Y5035328D01*
X16116747Y4991305D01*
X16080314Y4919956D01*
X16007448Y4997546D01*
X15958195Y5019304D01*
X15902196Y5026557D01*
X15823933Y5014413D01*
X15753090Y4968534D01*
X15701814Y4875427D01*
X15687140Y4807284D01*
X15682248Y4721598D01*
X15401128Y4721598D01*
X15401128Y5447562D01*
X15691694Y5447562D01*
X15744319Y5389539D01*
X15792897Y5318022D01*
X15834728Y5242457D01*
X15865763Y5172290D01*
X16003399Y5226265D01*
X15970340Y5308576D01*
X15922437Y5394936D01*
X16389321Y5394936D01*
X16389321Y5219518D01*
X16526957Y5219518D01*
X16526957Y5726883D01*
X16389321Y5726883D01*
X16389321Y5560910D01*
X15691694Y5560910D01*
X15691694Y5447562D01*
X15401128Y5447562D01*
X15401128Y6615734D01*
X16818872Y6615734D01*
X16818872Y3616847D01*
X16110000Y3144266D01*
G37*
G36*
X15995978Y4832247D02*
G01*
X16023640Y4736441D01*
X16023640Y4671671D01*
X15832029Y4671671D01*
X15827981Y4708105D01*
X15826631Y4747236D01*
X15830005Y4791766D01*
X15843498Y4829548D01*
X15871835Y4855186D01*
X15919738Y4864632D01*
X15995978Y4832247D01*
G37*
G36*
X16334671Y4888921D02*
G01*
X16371104Y4854512D01*
X16388646Y4806609D01*
X16393369Y4751285D01*
X16392019Y4710129D01*
X16387971Y4671671D01*
X16161276Y4671671D01*
X16161276Y4760730D01*
X16187589Y4863957D01*
X16274624Y4902415D01*
X16334671Y4888921D01*
G37*
%TO.C,kibuzzard-631DE163*%
G36*
X6530806Y17989961D02*
G01*
X6467583Y18009785D01*
X6420792Y18069257D01*
X6399361Y18130296D01*
X6386502Y18207687D01*
X6382216Y18301429D01*
X6382875Y18315716D01*
X6452224Y18315716D01*
X6473656Y18249279D01*
X6532234Y18221419D01*
X6588670Y18249279D01*
X6610816Y18315716D01*
X6588670Y18382867D01*
X6532234Y18411442D01*
X6473656Y18382867D01*
X6452224Y18315716D01*
X6382875Y18315716D01*
X6386502Y18394377D01*
X6399361Y18471291D01*
X6420792Y18532172D01*
X6467583Y18591644D01*
X6530806Y18611467D01*
X6594921Y18591644D01*
X6641534Y18532172D01*
X6662568Y18471291D01*
X6675189Y18394377D01*
X6679396Y18301429D01*
X6675189Y18207687D01*
X6662568Y18130296D01*
X6641534Y18069257D01*
X6594921Y18009785D01*
X6532234Y17990403D01*
X6530806Y17989961D01*
G37*
G36*
X3738003Y17663002D02*
G01*
X3675869Y17672219D01*
X3614937Y17687482D01*
X3555794Y17708643D01*
X3499011Y17735500D01*
X3445133Y17767793D01*
X3394680Y17805211D01*
X3348137Y17847395D01*
X3305954Y17893938D01*
X3268535Y17944391D01*
X3236242Y17998268D01*
X3209385Y18055052D01*
X3202002Y18075686D01*
X4056211Y18075686D01*
X4141936Y18075686D01*
X4100502Y17857087D01*
X4246234Y17857087D01*
X4286239Y18075686D01*
X4400539Y18075686D01*
X4359106Y17857087D01*
X4504838Y17857087D01*
X4546272Y18075686D01*
X4720579Y18075686D01*
X4720579Y18221419D01*
X4573418Y18221419D01*
X4588693Y18301429D01*
X4794874Y18301429D01*
X4799786Y18191772D01*
X4814520Y18097117D01*
X4839076Y18017465D01*
X4873456Y17952814D01*
X4933781Y17889314D01*
X5009981Y17851214D01*
X5102056Y17838514D01*
X5194131Y17851214D01*
X5270331Y17889314D01*
X5330656Y17952814D01*
X5365035Y18017465D01*
X5389592Y18097117D01*
X5404326Y18191772D01*
X5409237Y18301429D01*
X5404326Y18410416D01*
X5389592Y18504490D01*
X5373248Y18557175D01*
X5527823Y18557175D01*
X5584973Y18411442D01*
X5672127Y18446447D01*
X5763567Y18497167D01*
X5763567Y18002820D01*
X5577829Y18002820D01*
X5577829Y17857087D01*
X6115039Y17857087D01*
X6115039Y18002820D01*
X5939303Y18002820D01*
X5939303Y18301429D01*
X6223624Y18301429D01*
X6228536Y18191772D01*
X6243270Y18097117D01*
X6267826Y18017465D01*
X6302206Y17952814D01*
X6362531Y17889314D01*
X6438731Y17851214D01*
X6530806Y17838514D01*
X6622881Y17851214D01*
X6699081Y17889314D01*
X6759406Y17952814D01*
X6793785Y18017465D01*
X6818342Y18097117D01*
X6833076Y18191772D01*
X6837987Y18301429D01*
X6833076Y18410416D01*
X6818342Y18504490D01*
X6801998Y18557175D01*
X6956573Y18557175D01*
X7013723Y18411442D01*
X7100877Y18446447D01*
X7192317Y18497167D01*
X7192317Y18002820D01*
X7006579Y18002820D01*
X7006579Y17857087D01*
X7543789Y17857087D01*
X7543789Y18002820D01*
X7368053Y18002820D01*
X7368053Y18741484D01*
X7248038Y18741484D01*
X7186602Y18685762D01*
X7110878Y18634328D01*
X7030868Y18590036D01*
X6956573Y18557175D01*
X6801998Y18557175D01*
X6793785Y18583652D01*
X6759406Y18647901D01*
X6699081Y18711004D01*
X6622881Y18748866D01*
X6530806Y18761486D01*
X6440159Y18748786D01*
X6364436Y18710686D01*
X6303634Y18647186D01*
X6268630Y18582714D01*
X6243627Y18503597D01*
X6228625Y18409835D01*
X6223624Y18301429D01*
X5939303Y18301429D01*
X5939303Y18741484D01*
X5819288Y18741484D01*
X5757852Y18685762D01*
X5682128Y18634328D01*
X5602118Y18590036D01*
X5527823Y18557175D01*
X5373248Y18557175D01*
X5365035Y18583652D01*
X5330656Y18647901D01*
X5270331Y18711004D01*
X5194131Y18748866D01*
X5102056Y18761486D01*
X5011409Y18748786D01*
X4935686Y18710686D01*
X4874884Y18647186D01*
X4839880Y18582714D01*
X4814877Y18503597D01*
X4799875Y18409835D01*
X4794874Y18301429D01*
X4588693Y18301429D01*
X4603422Y18378581D01*
X4720579Y18378581D01*
X4720579Y18524314D01*
X4631997Y18524314D01*
X4673431Y18741484D01*
X4527698Y18741484D01*
X4486264Y18524314D01*
X4371964Y18524314D01*
X4414827Y18741484D01*
X4269094Y18741484D01*
X4227661Y18524314D01*
X4056211Y18524314D01*
X4056211Y18378581D01*
X4199086Y18378581D01*
X4169082Y18221419D01*
X4056211Y18221419D01*
X4056211Y18075686D01*
X3202002Y18075686D01*
X3188224Y18114195D01*
X3172961Y18175127D01*
X3163744Y18237261D01*
X3160662Y18300000D01*
X3163744Y18362739D01*
X3172961Y18424873D01*
X3188224Y18485805D01*
X3209385Y18544948D01*
X3236242Y18601732D01*
X3268535Y18655609D01*
X3305954Y18706062D01*
X3348137Y18752605D01*
X3394680Y18794789D01*
X3445133Y18832207D01*
X3499011Y18864500D01*
X3555794Y18891357D01*
X3614937Y18912518D01*
X3675869Y18927781D01*
X3738003Y18936998D01*
X3800742Y18940080D01*
X7799258Y18940080D01*
X7861997Y18936998D01*
X7924131Y18927781D01*
X7985063Y18912518D01*
X8044206Y18891357D01*
X8100989Y18864500D01*
X8154867Y18832207D01*
X8205320Y18794789D01*
X8251863Y18752605D01*
X8294046Y18706062D01*
X8331465Y18655609D01*
X8363758Y18601732D01*
X8390615Y18544948D01*
X8411776Y18485805D01*
X8427039Y18424873D01*
X8436256Y18362739D01*
X8439338Y18300000D01*
X8436256Y18237261D01*
X8427039Y18175127D01*
X8411776Y18114195D01*
X8390615Y18055052D01*
X8363758Y17998268D01*
X8331465Y17944391D01*
X8294046Y17893938D01*
X8251863Y17847395D01*
X8205320Y17805211D01*
X8154867Y17767793D01*
X8100989Y17735500D01*
X8044206Y17708643D01*
X7985063Y17687482D01*
X7924131Y17672219D01*
X7861997Y17663002D01*
X7799258Y17659920D01*
X3800742Y17659920D01*
X3738003Y17663002D01*
G37*
G36*
X4429114Y18221419D02*
G01*
X4314814Y18221419D01*
X4344818Y18378581D01*
X4457689Y18378581D01*
X4429114Y18221419D01*
G37*
G36*
X5102056Y17989961D02*
G01*
X5038833Y18009785D01*
X4992042Y18069257D01*
X4970611Y18130296D01*
X4957752Y18207687D01*
X4953466Y18301429D01*
X4954125Y18315716D01*
X5023474Y18315716D01*
X5044906Y18249279D01*
X5103484Y18221419D01*
X5159920Y18249279D01*
X5182066Y18315716D01*
X5159920Y18382867D01*
X5103484Y18411442D01*
X5044906Y18382867D01*
X5023474Y18315716D01*
X4954125Y18315716D01*
X4957752Y18394377D01*
X4970611Y18471291D01*
X4992042Y18532172D01*
X5038833Y18591644D01*
X5102056Y18611467D01*
X5166171Y18591644D01*
X5212784Y18532172D01*
X5233818Y18471291D01*
X5246439Y18394377D01*
X5250646Y18301429D01*
X5246439Y18207687D01*
X5233818Y18130296D01*
X5212784Y18069257D01*
X5166171Y18009785D01*
X5103484Y17990403D01*
X5102056Y17989961D01*
G37*
%TO.C,kibuzzard-631DE0E9*%
G36*
X13460701Y4831797D02*
G01*
X13488363Y4735992D01*
X13488363Y4671222D01*
X13296752Y4671222D01*
X13292703Y4707655D01*
X13291354Y4746787D01*
X13294727Y4791316D01*
X13308221Y4829099D01*
X13336558Y4854737D01*
X13384461Y4864182D01*
X13460701Y4831797D01*
G37*
G36*
X13799394Y4888471D02*
G01*
X13835827Y4854062D01*
X13853369Y4806159D01*
X13858092Y4750835D01*
X13856742Y4709679D01*
X13852694Y4671222D01*
X13625999Y4671222D01*
X13625999Y4760280D01*
X13652312Y4863508D01*
X13739347Y4901965D01*
X13799394Y4888471D01*
G37*
G36*
X13570000Y3142692D02*
G01*
X12856406Y3618421D01*
X12856406Y4721149D01*
X13146971Y4721149D01*
X13153043Y4609150D01*
X13167212Y4505249D01*
X13978186Y4505249D01*
X13988812Y4563609D01*
X13996402Y4622644D01*
X14000957Y4681005D01*
X14002475Y4737341D01*
X13999270Y4803966D01*
X13989656Y4866206D01*
X13972451Y4922205D01*
X13946476Y4970108D01*
X13865513Y5039601D01*
X13808671Y5058830D01*
X13739347Y5065239D01*
X13682673Y5057649D01*
X13628698Y5034878D01*
X13581470Y4990855D01*
X13545037Y4919507D01*
X13472170Y4997096D01*
X13422918Y5018854D01*
X13366919Y5026107D01*
X13288655Y5013963D01*
X13217813Y4968084D01*
X13166537Y4874977D01*
X13151862Y4806834D01*
X13146971Y4721149D01*
X12856406Y4721149D01*
X12856406Y5430920D01*
X13137525Y5430920D01*
X13144272Y5360584D01*
X13164513Y5289910D01*
X13198922Y5223285D01*
X13248174Y5165093D01*
X13364220Y5247405D01*
X13300800Y5332415D01*
X13281908Y5414727D01*
X13309571Y5492991D01*
X13388509Y5524027D01*
X13460026Y5499063D01*
X13532892Y5435643D01*
X13571518Y5395836D01*
X13611831Y5353331D01*
X13654673Y5310825D01*
X13700889Y5271019D01*
X13750985Y5235935D01*
X13805466Y5207598D01*
X13864838Y5188876D01*
X13929608Y5182635D01*
X13957945Y5181960D01*
X13991680Y5185334D01*
X13991680Y5730481D01*
X13854043Y5730481D01*
X13854043Y5371547D01*
X13809514Y5385716D01*
X13761611Y5420125D01*
X13715732Y5463305D01*
X13677275Y5503786D01*
X13609807Y5572604D01*
X13536940Y5633326D01*
X13459351Y5676506D01*
X13376365Y5692699D01*
X13271788Y5671109D01*
X13196898Y5613085D01*
X13152368Y5529424D01*
X13137525Y5430920D01*
X12856406Y5430920D01*
X12856406Y6617308D01*
X14283594Y6617308D01*
X14283594Y3618421D01*
X13570000Y3142692D01*
G37*
%TO.C,kibuzzard-631DE0DB*%
G36*
X11126480Y4714627D02*
G01*
X11040120Y4731494D01*
X10957134Y4750385D01*
X10873472Y4771975D01*
X10783739Y4796938D01*
X10873472Y4821902D01*
X10957134Y4843492D01*
X11040120Y4861708D01*
X11126480Y4877901D01*
X11126480Y4714627D01*
G37*
G36*
X11030000Y3144491D02*
G01*
X10321803Y3616622D01*
X10321803Y4710578D01*
X10621814Y4710578D01*
X10714204Y4681989D01*
X10809209Y4652893D01*
X10906827Y4623291D01*
X11007061Y4593183D01*
X11090047Y4568948D01*
X11176542Y4544821D01*
X11266545Y4520802D01*
X11360057Y4496891D01*
X11457077Y4473088D01*
X11457077Y4645808D01*
X11264117Y4683591D01*
X11264117Y4906238D01*
X11457077Y4945370D01*
X11457077Y5123487D01*
X11362378Y5101223D01*
X11270432Y5078688D01*
X11181238Y5055884D01*
X11094797Y5032809D01*
X11011109Y5009465D01*
X10909610Y4980074D01*
X10810895Y4950599D01*
X10714963Y4921039D01*
X10621814Y4891395D01*
X10621814Y4710578D01*
X10321803Y4710578D01*
X10321803Y5459482D01*
X10602923Y5459482D01*
X10609670Y5389145D01*
X10629910Y5318472D01*
X10664319Y5251847D01*
X10713572Y5193655D01*
X10829618Y5275967D01*
X10766197Y5360977D01*
X10747306Y5443289D01*
X10774968Y5521553D01*
X10853907Y5552588D01*
X10925423Y5527625D01*
X10998290Y5464204D01*
X11036916Y5424398D01*
X11077228Y5381893D01*
X11120071Y5339387D01*
X11166287Y5299581D01*
X11216382Y5264497D01*
X11270863Y5236160D01*
X11330236Y5217437D01*
X11395006Y5211197D01*
X11423343Y5210522D01*
X11457077Y5213895D01*
X11457077Y5759043D01*
X11319441Y5759043D01*
X11319441Y5400109D01*
X11274912Y5414278D01*
X11227009Y5448687D01*
X11181130Y5491867D01*
X11142673Y5532348D01*
X11075204Y5601166D01*
X11002338Y5661888D01*
X10924749Y5705068D01*
X10841762Y5721260D01*
X10737186Y5699670D01*
X10662295Y5641647D01*
X10617766Y5557986D01*
X10602923Y5459482D01*
X10321803Y5459482D01*
X10321803Y6615509D01*
X11738197Y6615509D01*
X11738197Y3616622D01*
X11030000Y3144491D01*
G37*
%TO.C,kibuzzard-631DE1A7*%
G36*
X3666531Y804557D02*
G01*
X3618204Y811726D01*
X3570812Y823597D01*
X3524812Y840056D01*
X3480647Y860944D01*
X3438742Y886061D01*
X3399501Y915164D01*
X3363301Y947974D01*
X3330492Y984174D01*
X3301389Y1023415D01*
X3276272Y1065320D01*
X3255383Y1109485D01*
X3238924Y1155485D01*
X3227053Y1202876D01*
X3219885Y1251203D01*
X3217487Y1300000D01*
X3219885Y1348797D01*
X3227053Y1397124D01*
X3238924Y1444515D01*
X3255383Y1490515D01*
X3276272Y1534680D01*
X3301389Y1576585D01*
X3330492Y1615826D01*
X3355461Y1643376D01*
X3715420Y1643376D01*
X3728199Y1581146D01*
X3746535Y1503359D01*
X3761228Y1445142D01*
X3777156Y1384578D01*
X3794319Y1321669D01*
X3812469Y1257526D01*
X3831360Y1193258D01*
X3850993Y1128867D01*
X3880163Y1037189D01*
X3907666Y955512D01*
X4048795Y955512D01*
X4070032Y1014717D01*
X4090776Y1075281D01*
X4111025Y1137202D01*
X4130472Y1199432D01*
X4148808Y1260921D01*
X4166032Y1321669D01*
X4189646Y1410153D01*
X4210482Y1494469D01*
X4211753Y1500025D01*
X4309939Y1500025D01*
X4354389Y1386677D01*
X4422175Y1413903D01*
X4493295Y1453352D01*
X4493295Y1068860D01*
X4348833Y1068860D01*
X4348833Y955512D01*
X4766663Y955512D01*
X4766663Y1043301D01*
X4991135Y1043301D01*
X4999469Y1000518D01*
X5021694Y969403D01*
X5053365Y949956D01*
X5091148Y943289D01*
X5160045Y968847D01*
X5190049Y1043301D01*
X5160045Y1115532D01*
X5091148Y1141091D01*
X5053365Y1134424D01*
X5021694Y1115532D01*
X4999469Y1084973D01*
X4991135Y1043301D01*
X4766663Y1043301D01*
X4766663Y1068860D01*
X4629979Y1068860D01*
X4629979Y1301111D01*
X5406743Y1301111D01*
X5410562Y1215823D01*
X5422022Y1142202D01*
X5441122Y1080250D01*
X5467861Y1029966D01*
X5514781Y980577D01*
X5574047Y950944D01*
X5645661Y941066D01*
X5717275Y950944D01*
X5776542Y980577D01*
X5823461Y1029966D01*
X5850201Y1080250D01*
X5869300Y1142202D01*
X5880760Y1215823D01*
X5884580Y1301111D01*
X5880760Y1385879D01*
X5869300Y1459048D01*
X5850201Y1520618D01*
X5823461Y1570589D01*
X5776542Y1619670D01*
X5717275Y1649118D01*
X5645661Y1658934D01*
X5575159Y1649056D01*
X5516262Y1619423D01*
X5468973Y1570034D01*
X5441747Y1519889D01*
X5422300Y1458353D01*
X5410632Y1385427D01*
X5406743Y1301111D01*
X4629979Y1301111D01*
X4629979Y1643376D01*
X4536634Y1643376D01*
X4488850Y1600037D01*
X4429954Y1560033D01*
X4367724Y1525584D01*
X4309939Y1500025D01*
X4211753Y1500025D01*
X4228401Y1572812D01*
X4243264Y1643376D01*
X4099913Y1643376D01*
X4089911Y1585591D01*
X4077688Y1518916D01*
X4063797Y1446824D01*
X4048795Y1372787D01*
X4032682Y1298333D01*
X4015458Y1224991D01*
X3997678Y1156232D01*
X3979898Y1095530D01*
X3961979Y1157065D01*
X3943782Y1226102D01*
X3926002Y1299444D01*
X3909333Y1373898D01*
X3893915Y1447796D01*
X3879885Y1519472D01*
X3868217Y1585730D01*
X3859883Y1643376D01*
X3715420Y1643376D01*
X3355461Y1643376D01*
X3363301Y1652026D01*
X3399501Y1684836D01*
X3438742Y1713939D01*
X3480647Y1739056D01*
X3524812Y1759944D01*
X3570812Y1776403D01*
X3618204Y1788274D01*
X3666531Y1795443D01*
X3715327Y1797840D01*
X5884673Y1797840D01*
X5933469Y1795443D01*
X5981796Y1788274D01*
X6029188Y1776403D01*
X6075188Y1759944D01*
X6119353Y1739056D01*
X6161258Y1713939D01*
X6200499Y1684836D01*
X6236699Y1652026D01*
X6269508Y1615826D01*
X6298611Y1576585D01*
X6323728Y1534680D01*
X6344617Y1490515D01*
X6361076Y1444515D01*
X6372947Y1397124D01*
X6380115Y1348797D01*
X6382513Y1300000D01*
X6380115Y1251203D01*
X6372947Y1202876D01*
X6361076Y1155485D01*
X6344617Y1109485D01*
X6323728Y1065320D01*
X6298611Y1023415D01*
X6269508Y984174D01*
X6236699Y947974D01*
X6200499Y915164D01*
X6161258Y886061D01*
X6119353Y860944D01*
X6075188Y840056D01*
X6029188Y823597D01*
X5981796Y811726D01*
X5933469Y804557D01*
X5884673Y802160D01*
X3715327Y802160D01*
X3666531Y804557D01*
G37*
G36*
X5645661Y1058859D02*
G01*
X5596488Y1074277D01*
X5560095Y1120533D01*
X5543426Y1168008D01*
X5533425Y1228201D01*
X5530091Y1301111D01*
X5530604Y1312224D01*
X5584543Y1312224D01*
X5601211Y1260551D01*
X5646773Y1238881D01*
X5690667Y1260551D01*
X5707891Y1312224D01*
X5690667Y1364452D01*
X5646773Y1386677D01*
X5601211Y1364452D01*
X5584543Y1312224D01*
X5530604Y1312224D01*
X5533425Y1373404D01*
X5543426Y1433227D01*
X5560095Y1480578D01*
X5596488Y1526834D01*
X5645661Y1542252D01*
X5695529Y1526834D01*
X5731783Y1480578D01*
X5748143Y1433227D01*
X5757959Y1373404D01*
X5761231Y1301111D01*
X5757959Y1228201D01*
X5748143Y1168008D01*
X5731783Y1120533D01*
X5695529Y1074277D01*
X5646773Y1059202D01*
X5645661Y1058859D01*
G37*
%TO.C,kibuzzard-631DE0D4*%
G36*
X8490000Y3147640D02*
G01*
X7791249Y3613474D01*
X7791249Y4709454D01*
X8072368Y4709454D01*
X8164758Y4680864D01*
X8259763Y4651768D01*
X8357382Y4622166D01*
X8457615Y4592058D01*
X8540602Y4567824D01*
X8627096Y4543697D01*
X8717100Y4519678D01*
X8810611Y4495767D01*
X8907632Y4471964D01*
X8907632Y4644684D01*
X8714671Y4682466D01*
X8714671Y4905113D01*
X8907632Y4944245D01*
X8907632Y5122363D01*
X8812932Y5100098D01*
X8720986Y5077563D01*
X8631792Y5054759D01*
X8545351Y5031685D01*
X8461663Y5008341D01*
X8360165Y4978949D01*
X8261450Y4949474D01*
X8165517Y4919914D01*
X8072368Y4890270D01*
X8072368Y4709454D01*
X7791249Y4709454D01*
X7791249Y5474550D01*
X8072368Y5474550D01*
X8124994Y5416526D01*
X8173572Y5345010D01*
X8215402Y5269445D01*
X8246438Y5199277D01*
X8384074Y5253252D01*
X8351014Y5335564D01*
X8303112Y5421924D01*
X8769995Y5421924D01*
X8769995Y5246505D01*
X8907632Y5246505D01*
X8907632Y5753870D01*
X8769995Y5753870D01*
X8769995Y5587897D01*
X8072368Y5587897D01*
X8072368Y5474550D01*
X7791249Y5474550D01*
X7791249Y6612360D01*
X9188751Y6612360D01*
X9188751Y3613474D01*
X8490000Y3147640D01*
G37*
G36*
X8577035Y4713502D02*
G01*
X8490675Y4730369D01*
X8407688Y4749261D01*
X8324027Y4770851D01*
X8234293Y4795814D01*
X8324027Y4820777D01*
X8407688Y4842367D01*
X8490675Y4860584D01*
X8577035Y4876776D01*
X8577035Y4713502D01*
G37*
%TD*%
M02*
